<svg width="203" height="74" viewBox="0 0 203 74" fill="none" xmlns="http://www.w3.org/2000/svg">
<g clip-path="url(#clip0_2327_23874)">
<g clip-path="url(#clip1_2327_23874)">
<path d="M179.745 0.136719H22.5143C10.1091 0.136719 0.0527344 10.1931 0.0527344 22.5983V50.6752C0.0527344 63.0803 10.1091 73.1367 22.5143 73.1367H179.745C192.15 73.1367 202.207 63.0803 202.207 50.6752V22.5983C202.207 10.1931 192.15 0.136719 179.745 0.136719Z" fill="black"/>
<path d="M151.031 49.2714H153.392V33.4762H151.031V49.2714ZM172.298 39.1663L169.591 46.0141H169.51L166.7 39.1663H164.158L168.371 48.737L165.968 54.0612H168.43L174.923 39.1663H172.298ZM158.906 47.4775C158.134 47.4775 157.055 47.091 157.055 46.1361C157.055 44.917 158.399 44.4497 159.558 44.4497C160.595 44.4497 161.085 44.6727 161.715 44.9778C161.531 46.441 160.271 47.4775 158.906 47.4775ZM159.193 38.8208C157.483 38.8208 155.713 39.5728 154.98 41.2392L157.076 42.1127C157.523 41.2392 158.357 40.9549 159.233 40.9549C160.453 40.9549 161.696 41.6858 161.715 42.9867V43.1491C161.287 42.9053 160.372 42.5396 159.253 42.5396C156.993 42.5396 154.695 43.7788 154.695 46.0955C154.695 48.2089 156.546 49.5706 158.621 49.5706C160.209 49.5706 161.085 48.8593 161.633 48.0258H161.715V49.2458H163.995V43.1896C163.995 40.3852 161.898 38.8208 159.193 38.8208ZM144.601 41.089H141.243V35.6749H144.601C146.366 35.6749 147.368 37.1339 147.368 38.382C147.368 39.606 146.366 41.089 144.601 41.089ZM144.539 33.4762H138.882V49.2714H141.243V43.2873H144.539C147.156 43.2873 149.729 41.396 149.729 38.382C149.729 35.3685 147.156 33.4762 144.539 33.4762ZM113.689 47.4804C112.058 47.4804 110.693 46.1162 110.693 44.2443C110.693 42.3506 112.058 40.9671 113.689 40.9671C115.3 40.9671 116.563 42.3506 116.563 44.2443C116.563 46.1162 115.3 47.4804 113.689 47.4804ZM116.4 40.0507H116.319C115.789 39.4198 114.769 38.85 113.486 38.85C110.794 38.85 108.328 41.2114 108.328 44.2443C108.328 47.2564 110.794 49.5971 113.486 49.5971C114.769 49.5971 115.789 49.0272 116.319 48.3762H116.4V49.149C116.4 51.2057 115.3 52.3043 113.526 52.3043C112.079 52.3043 111.182 51.2663 110.815 50.3913L108.757 51.2461C109.347 52.6704 110.916 54.4216 113.526 54.4216C116.299 54.4216 118.643 52.7929 118.643 48.8233V39.1757H116.4V40.0507ZM120.274 49.2714H122.638V33.4762H120.274V49.2714ZM126.124 44.0606C126.063 41.9844 127.735 40.9261 128.938 40.9261C129.876 40.9261 130.67 41.3946 130.936 42.0658L126.124 44.0606ZM133.463 42.2691C133.014 41.0688 131.649 38.85 128.856 38.85C126.083 38.85 123.78 41.0279 123.78 44.2235C123.78 47.2362 126.063 49.5971 129.12 49.5971C131.587 49.5971 133.014 48.0914 133.606 47.2158L131.771 45.9943C131.159 46.8901 130.324 47.4804 129.12 47.4804C127.918 47.4804 127.062 46.9307 126.512 45.8518L133.707 42.8802L133.463 42.2691ZM76.1331 40.4988V42.7784H81.5962C81.4331 44.0607 81.005 44.9969 80.3527 45.6484C79.5574 46.442 78.3139 47.3176 76.1331 47.3176C72.7695 47.3176 70.14 44.6104 70.14 41.2518C70.14 37.8934 72.7695 35.186 76.1331 35.186C77.9474 35.186 79.2721 35.8985 80.2507 36.8146L81.8617 35.2062C80.4956 33.9035 78.6815 32.9062 76.1331 32.9062C71.5254 32.9062 67.6523 36.6516 67.6523 41.2518C67.6523 45.8518 71.5254 49.5971 76.1331 49.5971C78.6198 49.5971 80.4956 48.7829 81.963 47.2564C83.4716 45.75 83.9406 43.6333 83.9406 41.9232C83.9406 41.3946 83.8995 40.9059 83.8181 40.4988H76.1331ZM90.1516 47.4804C88.5205 47.4804 87.1139 46.1369 87.1139 44.2235C87.1139 42.2898 88.5205 40.9671 90.1516 40.9671C91.7822 40.9671 93.1889 42.2898 93.1889 44.2235C93.1889 46.1369 91.7822 47.4804 90.1516 47.4804ZM90.1516 38.85C87.1745 38.85 84.7492 41.1092 84.7492 44.2235C84.7492 47.3176 87.1745 49.5971 90.1516 49.5971C93.1275 49.5971 95.5535 47.3176 95.5535 44.2235C95.5535 41.1092 93.1275 38.85 90.1516 38.85ZM101.935 47.4804C100.305 47.4804 98.8983 46.1369 98.8983 44.2235C98.8983 42.2898 100.305 40.9671 101.935 40.9671C103.567 40.9671 104.973 42.2898 104.973 44.2235C104.973 46.1369 103.567 47.4804 101.935 47.4804ZM101.935 38.85C98.9595 38.85 96.5341 41.1092 96.5341 44.2235C96.5341 47.3176 98.9595 49.5971 101.935 49.5971C104.913 49.5971 107.338 47.3176 107.338 44.2235C107.338 41.1092 104.913 38.85 101.935 38.85Z" fill="white"/>
<path d="M71.9967 28.0874C70.8623 28.0874 69.8866 27.6887 69.0999 26.9034C68.3128 26.1174 67.9141 25.1333 67.9141 23.989C67.9141 22.8447 68.3129 21.8623 69.0999 21.0746C69.8866 20.289 70.8624 19.8906 71.9967 19.8906C72.5747 19.8906 73.114 19.9903 73.6295 20.1978C74.1453 20.4054 74.5672 20.6936 74.8993 21.0707L74.9777 21.1597L74.0927 22.0431L74.0042 21.9346C73.784 21.6642 73.5038 21.4544 73.1487 21.3016C72.795 21.1495 72.4074 21.0791 71.9967 21.0791C71.1978 21.0791 70.5348 21.3501 69.9811 21.9008C69.9809 21.9009 69.9812 21.9007 69.9811 21.9008C69.44 22.4628 69.1676 23.1471 69.1676 23.989C69.1676 24.8315 69.4399 25.5158 69.9816 26.0779C70.5352 26.6284 71.1982 26.9009 71.9967 26.9009C72.7281 26.9009 73.3332 26.697 73.8088 26.2933C74.2516 25.9176 74.5175 25.41 74.6114 24.7628H71.8702V23.598H75.7962L75.8131 23.7047C75.8452 23.9094 75.8678 24.1071 75.8678 24.297C75.8678 25.3837 75.5361 26.271 74.885 26.9236C74.1501 27.7015 73.1837 28.0874 71.9967 28.0874ZM106.087 28.0874C104.951 28.0874 103.987 27.6886 103.21 26.9034C102.432 26.1266 102.046 25.1417 102.046 23.989C102.046 22.8362 102.432 21.8519 103.209 21.0751C103.209 21.0752 103.21 21.0751 103.209 21.0751C103.986 20.2896 104.951 19.8906 106.087 19.8906C107.221 19.8906 108.186 20.2893 108.962 21.0864C109.74 21.863 110.126 22.8456 110.126 23.989C110.126 25.1417 109.74 26.1261 108.963 26.9028C108.186 27.6886 107.212 28.0874 106.087 28.0874ZM76.9913 27.9175V20.0604H77.118H81.6909V21.2488H78.2231V23.4066H81.3508V24.5713H78.2231V26.7311H81.6909V27.9175H76.9913ZM84.567 27.9175V21.2488H82.4397V20.0604H87.9262V21.2488H87.7995H85.7988V27.9175H84.567ZM91.4324 27.9175V20.0604H92.6642V20.1867V27.9175H91.4324ZM95.7648 27.9175V21.2488H93.6374V20.0604H99.1238V21.2488H98.9973H96.9964V27.9175H95.7648ZM111.22 27.9175V20.0604H112.609L116.143 25.711L116.113 24.6383V20.0604H117.345V27.9175H116.126L112.421 21.9815L112.451 23.0535V23.0552V27.9175H111.22ZM106.087 26.9009C106.886 26.9009 107.538 26.6288 108.07 26.0789L108.071 26.0778C108.61 25.5391 108.875 24.8451 108.875 23.9889C108.875 23.1349 108.611 22.4392 108.072 21.9008L108.07 21.8992C107.538 21.3495 106.886 21.079 106.087 21.079C105.287 21.079 104.634 21.3491 104.093 21.8988C103.563 22.4503 103.299 23.1351 103.299 23.9889C103.299 24.8448 103.563 25.5271 104.092 26.0785C104.634 26.6284 105.287 26.9009 106.087 26.9009Z" fill="white"/>
<path d="M41.9246 35.9072L28.4531 50.1843C28.4537 50.1873 28.4547 50.1898 28.4552 50.1928C28.8684 51.743 30.2864 52.8845 31.9695 52.8845C32.6422 52.8845 33.2738 52.7028 33.8155 52.384L33.8586 52.3589L49.0223 43.6218L41.9246 35.9072Z" fill="#EA4335"/>
<path d="M55.562 33.4791L55.549 33.4702L49.0023 29.6807L41.627 36.234L49.028 43.6232L55.5401 39.8713C56.6818 39.2559 57.4569 38.054 57.4569 36.6682C57.4569 35.2923 56.6922 34.0965 55.562 33.4791Z" fill="#FBBC04"/>
<path d="M28.4575 23.0898C28.3765 23.388 28.334 23.7004 28.334 24.0247V49.253C28.334 49.5768 28.3761 49.8901 28.4581 50.1872L42.3931 36.2753L28.4575 23.0898Z" fill="#4285F4"/>
<path d="M42.0244 36.6371L48.9971 29.6767L33.8506 20.908C33.3 20.5788 32.6575 20.3887 31.9699 20.3887C30.287 20.3887 28.867 21.5322 28.4537 23.0845L28.4531 23.0884L42.0244 36.6371Z" fill="#34A853"/>
</g>
</g>
<defs>
<clipPath id="clip0_2327_23874">
<rect width="202.182" height="73" fill="white" transform="translate(0.0390625 0.136719)"/>
</clipPath>
<clipPath id="clip1_2327_23874">
<rect width="202.154" height="73" fill="white" transform="translate(0.0527344 0.136719)"/>
</clipPath>
</defs>
</svg>
