<svg width="57" height="57" viewBox="0 0 57 57" fill="none" xmlns="http://www.w3.org/2000/svg">
<g clip-path="url(#clip0_1807_4789)">
<path d="M12.4688 7.125C11.9963 7.125 11.5433 7.31267 11.2092 7.64672C10.8752 7.98077 10.6875 8.43383 10.6875 8.90625V26.7188C10.6875 27.1912 10.8752 27.6442 11.2092 27.9783C11.5433 28.3123 11.9963 28.5 12.4688 28.5H30.2812C30.7537 28.5 31.2067 28.3123 31.5408 27.9783C31.8748 27.6442 32.0625 27.1912 32.0625 26.7188V8.90625C32.0625 8.43383 31.8748 7.98077 31.5408 7.64672C31.2067 7.31267 30.7537 7.125 30.2812 7.125H12.4688ZM14.25 49.875V32.0625H20.6482C22.4295 32.0625 23.8984 32.4104 25.0551 33.1063C26.2117 33.8022 27.0726 34.8116 27.6379 36.1344C28.2126 37.4573 28.5 39.0533 28.5 40.9224C28.5 42.8034 28.2126 44.4125 27.6379 45.7496C27.1204 47.0255 26.2061 48.101 25.0301 48.8169C23.8759 49.5223 22.4152 49.875 20.6482 49.875H14.25ZM20.1851 34.9339H17.7199V46.9929H20.1851C20.9997 46.9929 21.7063 46.8706 22.3048 46.626C22.8842 46.3875 23.3905 46.0004 23.7726 45.5038C24.1573 44.9979 24.4435 44.3709 24.6311 43.6228C24.8306 42.8771 24.9292 41.9983 24.9268 40.9866C24.9268 39.6447 24.7558 38.5284 24.4138 37.6378C24.1369 36.8076 23.5901 36.094 22.8606 35.6108C22.1647 35.1595 21.2705 34.9339 20.1851 34.9339Z" fill="#2BFA64"/>
<path d="M10.6875 0C8.79783 0 6.98556 0.750668 5.64936 2.08686C4.31317 3.42306 3.5625 5.23533 3.5625 7.125V53.4375H1.78125C1.30883 53.4375 0.855765 53.6252 0.521716 53.9592C0.187667 54.2933 0 54.7463 0 55.2188C0 55.6912 0.187667 56.1442 0.521716 56.4783C0.855765 56.8123 1.30883 57 1.78125 57H40.9688C41.4412 57 41.8942 56.8123 42.2283 56.4783C42.5623 56.1442 42.75 55.6912 42.75 55.2188C42.75 54.7463 42.5623 54.2933 42.2283 53.9592C41.8942 53.6252 41.4412 53.4375 40.9688 53.4375H39.1875V39.1875C40.1323 39.1875 41.0385 39.5628 41.7066 40.2309C42.3747 40.899 42.75 41.8052 42.75 42.75V44.5312C42.75 45.9485 43.313 47.3077 44.3151 48.3099C45.3173 49.312 46.6765 49.875 48.0938 49.875C49.511 49.875 50.8702 49.312 51.8724 48.3099C52.8745 47.3077 53.4375 45.9485 53.4375 44.5312V28.5H55.2188C55.6912 28.5 56.1442 28.3123 56.4783 27.9783C56.8123 27.6442 57 27.1912 57 26.7188V15.4042C57 13.2097 57 10.3241 55.9526 7.99069C55.3705 6.64453 54.3813 5.51455 53.124 4.7595C51.7774 3.95912 50.1006 3.56013 48.0938 3.5625C47.6213 3.5625 47.1683 3.75017 46.8342 4.08422C46.5002 4.41827 46.3125 4.87133 46.3125 5.34375C46.3125 5.81617 46.5002 6.26923 46.8342 6.60328C47.1683 6.93733 47.6213 7.125 48.0938 7.125C49.647 7.125 50.6445 7.43137 51.3 7.81969C51.9296 8.20027 52.4214 8.77188 52.7036 9.45131C53.2273 10.6198 53.3805 12.1089 53.4197 13.8047H48.0938C47.6213 13.8047 47.1683 13.9924 46.8342 14.3264C46.5002 14.6605 46.3125 15.1135 46.3125 15.5859V26.7188C46.3125 27.1912 46.5002 27.6442 46.8342 27.9783C47.1683 28.3123 47.6213 28.5 48.0938 28.5H49.875V44.5312C49.875 45.0037 49.6873 45.4567 49.3533 45.7908C49.0192 46.1248 48.5662 46.3125 48.0938 46.3125C47.6213 46.3125 47.1683 46.1248 46.8342 45.7908C46.5002 45.4567 46.3125 45.0037 46.3125 44.5312V42.75C46.3125 40.8603 45.5618 39.0481 44.2256 37.7119C42.8894 36.3757 41.0772 35.625 39.1875 35.625V7.125C39.1875 5.23533 38.4368 3.42306 37.1006 2.08686C35.7644 0.750668 33.9522 0 32.0625 0L10.6875 0ZM35.625 7.125V53.4375H7.125V7.125C7.125 6.18017 7.50033 5.27403 8.16843 4.60593C8.83653 3.93783 9.74267 3.5625 10.6875 3.5625H32.0625C33.0073 3.5625 33.9135 3.93783 34.5816 4.60593C35.2497 5.27403 35.625 6.18017 35.625 7.125Z" fill="#2BFA64"/>
</g>
<defs>
<clipPath id="clip0_1807_4789">
<rect width="57" height="57" fill="white"/>
</clipPath>
</defs>
</svg>
