<svg width="57" height="57" viewBox="0 0 57 57" fill="none" xmlns="http://www.w3.org/2000/svg">
<g clip-path="url(#clip0_1807_4787)">
<path d="M28.5 57C36.0587 57 43.3078 53.9973 48.6525 48.6525C53.9973 43.3078 57 36.0587 57 28.5C57 20.9413 53.9973 13.6922 48.6525 8.34746C43.3078 3.00267 36.0587 0 28.5 0C20.9413 0 13.6922 3.00267 8.34746 8.34746C3.00267 13.6922 0 20.9413 0 28.5C0 36.0587 3.00267 43.3078 8.34746 48.6525C13.6922 53.9973 20.9413 57 28.5 57ZM28.5 5.34375C34.6414 5.34375 40.5313 7.78342 44.8739 12.1261C49.2166 16.4687 51.6562 22.3586 51.6562 28.5C51.6562 34.6414 49.2166 40.5313 44.8739 44.8739C40.5313 49.2166 34.6414 51.6562 28.5 51.6562C22.3586 51.6562 16.4687 49.2166 12.1261 44.8739C7.78342 40.5313 5.34375 34.6414 5.34375 28.5C5.34375 22.3586 7.78342 16.4687 12.1261 12.1261C16.4687 7.78342 22.3586 5.34375 28.5 5.34375ZM28.5 33.3307C34.9552 33.3307 41.0934 31.6172 46.3125 28.6033C45.5003 38.5356 37.7874 46.3125 28.5 46.3125C19.2126 46.3125 11.4998 38.5249 10.6875 28.5962C16.108 31.7069 22.2504 33.3396 28.5 33.3307ZM14.25 19.5938C14.25 16.644 15.846 14.25 17.8125 14.25C19.779 14.25 21.375 16.644 21.375 19.5938C21.375 22.5435 19.779 24.9375 17.8125 24.9375C15.846 24.9375 14.25 22.5435 14.25 19.5938ZM35.625 19.5938C35.625 16.644 37.221 14.25 39.1875 14.25C41.154 14.25 42.75 16.644 42.75 19.5938C42.75 22.5435 41.154 24.9375 39.1875 24.9375C37.221 24.9375 35.625 22.5435 35.625 19.5938Z" fill="#2CFF66"/>
</g>
<defs>
<clipPath id="clip0_1807_4787">
<rect width="57" height="57" fill="white"/>
</clipPath>
</defs>
</svg>
