<svg width="203" height="74" viewBox="0 0 203 74" fill="none" xmlns="http://www.w3.org/2000/svg">
<g clip-path="url(#clip0_2327_23883)">
<g clip-path="url(#clip1_2327_23883)">
<path d="M179.929 0.136719H22.6979C10.2927 0.136719 0.236328 10.1931 0.236328 22.5983V50.6752C0.236328 63.0803 10.2927 73.1367 22.6979 73.1367H179.929C192.334 73.1367 202.39 63.0803 202.39 50.6752V22.5983C202.39 10.1931 192.334 0.136719 179.929 0.136719Z" fill="black"/>
<path d="M128.508 35.626V38.5206H126.693V40.4188H128.508V46.8688C128.508 49.0713 129.504 49.9522 132.011 49.9522C132.451 49.9522 132.871 49.8999 133.238 49.8368V47.9596C132.923 47.9911 132.724 48.012 132.378 48.012C131.255 48.012 130.763 47.4876 130.763 46.292V40.4188H133.238V38.5206H130.763V35.626H128.508Z" fill="white"/>
<path d="M139.625 50.1107C142.96 50.1107 145.005 47.8767 145.005 44.1747C145.005 40.4934 142.95 38.249 139.625 38.249C136.29 38.249 134.234 40.4934 134.234 44.1747C134.234 47.8767 136.28 50.1107 139.625 50.1107ZM139.625 48.1075C137.664 48.1075 136.563 46.6707 136.563 44.1747C136.563 41.6995 137.664 40.2522 139.625 40.2522C141.575 40.2522 142.687 41.6995 142.687 44.1747C142.687 46.6602 141.575 48.1075 139.625 48.1075Z" fill="white"/>
<path d="M146.758 49.8892H149.012V43.1456C149.012 41.541 150.218 40.4607 151.928 40.4607C152.327 40.4607 152.998 40.5342 153.186 40.597V38.3738C152.945 38.3107 152.515 38.2793 152.179 38.2793C150.69 38.2793 149.421 39.0973 149.097 40.2196H148.928V38.4681H146.758V49.8892Z" fill="white"/>
<path d="M158.782 40.1682C160.45 40.1682 161.541 41.3324 161.594 43.1258H155.826C155.951 41.343 157.116 40.1682 158.782 40.1682ZM161.583 46.807C161.163 47.6984 160.23 48.1913 158.867 48.1913C157.063 48.1913 155.899 46.9224 155.826 44.9193V44.7933H163.891V44.0068C163.891 40.4199 161.971 38.249 158.794 38.249C155.573 38.249 153.529 40.5668 153.529 44.2165C153.529 47.8662 155.531 50.1107 158.804 50.1107C161.416 50.1107 163.24 48.8521 163.754 46.807H161.583Z" fill="white"/>
<path d="M113.723 45.6717C113.897 48.4763 116.234 50.2699 119.712 50.2699C123.43 50.2699 125.756 48.3893 125.756 45.3891C125.756 43.0304 124.43 41.7259 121.212 40.9758L119.484 40.5519C117.44 40.0736 116.614 39.4323 116.614 38.3126C116.614 36.8995 117.897 35.9755 119.821 35.9755C121.647 35.9755 122.908 36.8777 123.136 38.3236H125.506C125.365 35.6821 123.038 33.8232 119.853 33.8232C116.429 33.8232 114.147 35.6821 114.147 38.4757C114.147 40.7801 115.44 42.1499 118.277 42.8129L120.299 43.302C122.375 43.7913 123.288 44.5086 123.288 45.7044C123.288 47.0958 121.854 48.1067 119.897 48.1067C117.799 48.1067 116.342 47.161 116.136 45.6717H113.723Z" fill="white"/>
<path d="M90.3651 38.2793C88.8129 38.2793 87.4705 39.0555 86.7783 40.3559H86.6105V38.4681H84.4395V53.6858H86.6943V48.1587H86.8726C87.4705 49.3649 88.7605 50.0781 90.386 50.0781C93.2702 50.0781 95.1055 47.8021 95.1055 44.1735C95.1055 40.5447 93.2702 38.2793 90.3651 38.2793ZM89.7254 48.0539C87.8375 48.0539 86.6523 46.5647 86.6523 44.1839C86.6523 41.7927 87.8375 40.3035 89.7357 40.3035C91.6445 40.3035 92.7877 41.7613 92.7877 44.1735C92.7877 46.5961 91.6445 48.0539 89.7254 48.0539Z" fill="white"/>
<path d="M102.994 38.2793C101.442 38.2793 100.099 39.0555 99.4072 40.3559H99.2394V38.4681H97.0684V53.6858H99.3232V48.1587H99.5016C100.099 49.3649 101.389 50.0781 103.015 50.0781C105.899 50.0781 107.735 47.8021 107.735 44.1735C107.735 40.5447 105.899 38.2793 102.994 38.2793ZM102.354 48.0539C100.467 48.0539 99.2814 46.5647 99.2814 44.1839C99.2814 41.7927 100.467 40.3035 102.365 40.3035C104.273 40.3035 105.417 41.7613 105.417 44.1735C105.417 46.5961 104.273 48.0539 102.354 48.0539Z" fill="white"/>
<path d="M80.3945 49.8898H82.9817L77.3183 34.2041H74.6986L69.0352 49.8898H71.5353L72.9811 45.7266H78.9596L80.3945 49.8898ZM75.8834 37.0521H76.0681L78.3401 43.6829H73.6006L75.8834 37.0521Z" fill="white"/>
<path d="M70.5488 22.373V29.9399H73.281C75.5359 29.9399 76.8416 28.5504 76.8416 26.133C76.8416 23.7522 75.5253 22.373 73.281 22.373H70.5488ZM71.7236 23.4428H73.1499C74.7177 23.4428 75.6459 24.4392 75.6459 26.1487C75.6459 27.8844 74.7334 28.8702 73.1499 28.8702H71.7236V23.4428Z" fill="white"/>
<path d="M80.8398 30.0509C82.5074 30.0509 83.53 28.934 83.53 27.0829C83.53 25.2424 82.5021 24.1201 80.8398 24.1201C79.1723 24.1201 78.1445 25.2424 78.1445 27.0829C78.1445 28.934 79.1671 30.0509 80.8398 30.0509ZM80.8398 29.0493C79.8592 29.0493 79.3086 28.331 79.3086 27.0829C79.3086 25.8453 79.8592 25.1218 80.8398 25.1218C81.8152 25.1218 82.3711 25.8453 82.3711 27.0829C82.3711 28.3258 81.8152 29.0493 80.8398 29.0493Z" fill="white"/>
<path d="M92.2371 24.2295H91.1097L90.0923 28.5872H90.0032L88.8286 24.2295H87.7483L86.5737 28.5872H86.4899L85.4674 24.2295H84.3242L85.8974 29.9401H87.0562L88.2308 25.7346H88.32L89.4998 29.9401H90.6692L92.2371 24.2295Z" fill="white"/>
<path d="M93.5371 29.9407H94.6645V26.6004C94.6645 25.709 95.1941 25.1532 96.028 25.1532C96.8617 25.1532 97.2602 25.6093 97.2602 26.527V29.9407H98.3877V26.2439C98.3877 24.8858 97.6849 24.1201 96.4106 24.1201C95.5506 24.1201 94.9843 24.5029 94.7065 25.1375H94.6226V24.2302H93.5371V29.9407Z" fill="white"/>
<path d="M100.164 29.9401H101.291V22.001H100.164V29.9401Z" fill="white"/>
<path d="M105.529 30.0509C107.197 30.0509 108.219 28.934 108.219 27.0829C108.219 25.2424 107.192 24.1201 105.529 24.1201C103.862 24.1201 102.834 25.2424 102.834 27.0829C102.834 28.934 103.857 30.0509 105.529 30.0509ZM105.529 29.0493C104.549 29.0493 103.998 28.331 103.998 27.0829C103.998 25.8453 104.549 25.1218 105.529 25.1218C106.505 25.1218 107.061 25.8453 107.061 27.0829C107.061 28.3258 106.505 29.0493 105.529 29.0493Z" fill="white"/>
<path d="M111.581 29.0861C110.967 29.0861 110.521 28.7872 110.521 28.2733C110.521 27.7698 110.878 27.5024 111.664 27.4499L113.059 27.3608V27.8381C113.059 28.5459 112.43 29.0861 111.581 29.0861ZM111.292 30.0352C112.042 30.0352 112.666 29.7101 113.007 29.1384H113.096V29.9407H114.182V26.0393C114.182 24.8333 113.374 24.1201 111.942 24.1201C110.647 24.1201 109.724 24.7493 109.609 25.73H110.7C110.826 25.3262 111.261 25.0955 111.89 25.0955C112.661 25.0955 113.059 25.4364 113.059 26.0393V26.5323L111.512 26.6215C110.154 26.7053 109.389 27.2979 109.389 28.3258C109.389 29.3692 110.191 30.0352 111.292 30.0352Z" fill="white"/>
<path d="M118.005 30.0346C118.792 30.0346 119.458 29.6623 119.798 29.0383H119.888V29.9401H120.968V22.001H119.84V25.1369H119.756C119.447 24.5075 118.786 24.1352 118.005 24.1352C116.563 24.1352 115.635 25.2784 115.635 27.0823C115.635 28.8915 116.552 30.0346 118.005 30.0346ZM118.325 25.1473C119.269 25.1473 119.861 25.8972 119.861 27.0875C119.861 28.2832 119.274 29.0226 118.325 29.0226C117.37 29.0226 116.799 28.2936 116.799 27.0823C116.799 25.8815 117.376 25.1473 118.325 25.1473Z" fill="white"/>
<path d="M128.279 30.0509C129.947 30.0509 130.97 28.934 130.97 27.0829C130.97 25.2424 129.942 24.1201 128.279 24.1201C126.612 24.1201 125.584 25.2424 125.584 27.0829C125.584 28.934 126.607 30.0509 128.279 30.0509ZM128.279 29.0493C127.299 29.0493 126.748 28.331 126.748 27.0829C126.748 25.8453 127.299 25.1218 128.279 25.1218C129.255 25.1218 129.811 25.8453 129.811 27.0829C129.811 28.3258 129.255 29.0493 128.279 29.0493Z" fill="white"/>
<path d="M132.463 29.9407H133.59V26.6004C133.59 25.709 134.12 25.1532 134.954 25.1532C135.787 25.1532 136.186 25.6093 136.186 26.527V29.9407H137.313V26.2439C137.313 24.8858 136.611 24.1201 135.337 24.1201C134.477 24.1201 133.91 24.5029 133.632 25.1375H133.548V24.2302H132.463V29.9407Z" fill="white"/>
<path d="M142.506 22.8086V24.2558H141.6V25.205H142.506V28.43C142.506 29.5312 143.005 29.9717 144.259 29.9717C144.479 29.9717 144.688 29.9455 144.872 29.914V28.9753C144.715 28.991 144.615 29.0015 144.442 29.0015C143.881 29.0015 143.634 28.7393 143.634 28.1415V25.205H144.872V24.2558H143.634V22.8086H142.506Z" fill="white"/>
<path d="M146.385 29.9401H147.512V26.6052C147.512 25.7398 148.026 25.1578 148.948 25.1578C149.746 25.1578 150.171 25.6192 150.171 26.5317V29.9401H151.298V26.2538C151.298 24.8956 150.549 24.1247 149.331 24.1247C148.472 24.1247 147.869 24.5075 147.591 25.1473H147.501V22.001H146.385V29.9401Z" fill="white"/>
<path d="M155.363 25.0798C156.197 25.0798 156.741 25.6618 156.768 26.5585H153.885C153.946 25.667 154.529 25.0798 155.363 25.0798ZM156.763 28.399C156.553 28.8449 156.086 29.0913 155.405 29.0913C154.502 29.0913 153.921 28.4567 153.885 27.4552V27.3923H157.917V26.999C157.917 25.2056 156.958 24.1201 155.369 24.1201C153.758 24.1201 152.736 25.279 152.736 27.1039C152.736 28.9287 153.737 30.0509 155.373 30.0509C156.68 30.0509 157.592 29.4216 157.849 28.399H156.763Z" fill="white"/>
<path d="M56.8013 37.0153C56.8287 34.8914 57.9693 32.8817 59.7788 31.7693C58.6372 30.139 56.7253 29.1053 54.7361 29.0432C52.6144 28.8205 50.5575 30.3128 49.4764 30.3128C48.3744 30.3128 46.7097 29.0653 44.9172 29.1021C42.5807 29.1776 40.4025 30.5061 39.2658 32.5487C36.8223 36.7793 38.6449 42.9968 40.9857 46.4166C42.1568 48.0911 43.5255 49.9616 45.3164 49.8953C47.0688 49.8226 47.7234 48.7777 49.8388 48.7777C51.9346 48.7777 52.5486 49.8953 54.3758 49.8531C56.2564 49.8226 57.4411 48.1711 58.5712 46.4808C59.4127 45.2876 60.0602 43.9688 60.4897 42.5734C58.2798 41.6387 56.8039 39.4148 56.8013 37.0153Z" fill="white"/>
<path d="M53.3496 26.7949C54.3748 25.5641 54.8801 23.9821 54.7577 22.3848C53.1913 22.5493 51.7442 23.298 50.705 24.4815C49.6888 25.638 49.16 27.1922 49.2601 28.7286C50.827 28.7448 52.3676 28.0163 53.3496 26.7949Z" fill="white"/>
</g>
</g>
<defs>
<clipPath id="clip0_2327_23883">
<rect width="202.182" height="73" fill="white" transform="translate(0.220703 0.136719)"/>
</clipPath>
<clipPath id="clip1_2327_23883">
<rect width="202.154" height="73" fill="white" transform="translate(0.236328 0.136719)"/>
</clipPath>
</defs>
</svg>
