<svg width="57" height="57" viewBox="0 0 57 57" fill="none" xmlns="http://www.w3.org/2000/svg">
<path d="M28.5 29.6875C26.2954 29.6875 24.1811 30.5633 22.6222 32.1222C21.0633 33.6811 20.1875 35.7954 20.1875 38C20.1875 40.2046 21.0633 42.3189 22.6222 43.8778C24.1811 45.4367 26.2954 46.3125 28.5 46.3125C30.7046 46.3125 32.8189 45.4367 34.3778 43.8778C35.9367 42.3189 36.8125 40.2046 36.8125 38C36.8125 35.7954 35.9367 33.6811 34.3778 32.1222C32.8189 30.5633 30.7046 29.6875 28.5 29.6875ZM24.9375 38C24.9375 37.0552 25.3128 36.149 25.9809 35.4809C26.649 34.8128 27.5552 34.4375 28.5 34.4375C29.4448 34.4375 30.351 34.8128 31.0191 35.4809C31.6872 36.149 32.0625 37.0552 32.0625 38C32.0625 38.9448 31.6872 39.851 31.0191 40.5191C30.351 41.1872 29.4448 41.5625 28.5 41.5625C27.5552 41.5625 26.649 41.1872 25.9809 40.5191C25.3128 39.851 24.9375 38.9448 24.9375 38Z" fill="#2BFA64"/>
<path d="M41.6242 12.1507L34.0741 1.56531L6.31275 23.7431L4.77375 23.7264V23.7502H3.5625V52.2502H53.4375V23.7502H51.1528L46.607 10.4526L41.6242 12.1507ZM46.1344 23.7502H22.3179L40.0567 17.7034L43.6715 16.5468L46.1344 23.7502ZM36.9313 13.7514L18.62 19.9929L33.1217 8.40768L36.9313 13.7514ZM8.3125 43.1516V32.8441C9.3145 32.489 10.2246 31.9148 10.9765 31.1633C11.7284 30.4118 12.3031 29.502 12.6587 28.5002H44.3413C44.6967 29.5023 45.2713 30.4125 46.0232 31.1644C46.7751 31.9163 47.6853 32.491 48.6875 32.8464V43.1539C47.6853 43.5094 46.7751 44.084 46.0232 44.8359C45.2713 45.5878 44.6967 46.498 44.3413 47.5002H12.6635C12.3077 46.4972 11.7324 45.5863 10.9797 44.8339C10.2269 44.0816 9.3157 43.5068 8.3125 43.1516Z" fill="#2BFA64"/>
</svg>
